<svg width="72" height="72" viewBox="0 0 72 72" fill="none" xmlns="http://www.w3.org/2000/svg">
<path d="M55.8 0H16.2C7.252 0 0 7.252 0 16.2V55.8C0 64.746 7.252 72 16.2 72H55.8C64.748 72 72 64.746 72 55.8V16.2C72 7.252 64.748 0 55.8 0Z" fill="url(#paint0_linear_421_122)"/>
<path opacity="0.05" d="M12.6 49.954C9.84398 49.954 7.59998 47.726 7.59998 44.986C7.59998 42.246 9.84398 40.018 12.6 40.018H20.196L29.934 23.4L27.088 18.542C26.412 17.386 26.226 16.04 26.564 14.748C26.902 13.456 27.724 12.372 28.876 11.7C29.644 11.252 30.516 11.016 31.4 11.016C33.17 11.016 34.824 11.964 35.716 13.49L35.73 13.514L35.742 13.492C36.632 11.966 38.286 11.018 40.058 11.018C40.944 11.018 41.816 11.256 42.584 11.704C44.964 13.1 45.764 16.17 44.368 18.548L31.786 40.02H38.442L39.028 40.61C39.472 41.056 39.878 41.562 40.274 42.158L40.668 42.818C41.646 44.64 41.864 46.654 41.306 48.526L40.884 49.954H12.6Z" fill="black"/>
<path opacity="0.07" d="M12.6 48.954C10.394 48.954 8.59998 47.174 8.59998 44.986C8.59998 42.798 10.394 41.018 12.6 41.018H20.768L31.092 23.4L27.948 18.036C27.408 17.114 27.258 16.036 27.53 15C27.8 13.966 28.456 13.1 29.378 12.562C29.992 12.204 30.69 12.014 31.398 12.014C32.814 12.014 34.138 12.772 34.852 13.992L35.728 15.49L36.604 13.994C37.316 12.774 38.64 12.016 40.056 12.016C40.764 12.016 41.462 12.206 42.076 12.564C43.98 13.682 44.618 16.138 43.502 18.04L30.04 41.018H38.024L38.316 41.312C38.712 41.71 39.078 42.166 39.436 42.708L39.806 43.328C40.642 44.89 40.828 46.62 40.346 48.24L40.134 48.954H12.6Z" fill="black"/>
<path d="M38.604 43.2601C38.308 42.8121 37.98 42.3921 37.608 42.0181H28.296L42.642 17.5341C43.48 16.1041 43 14.2661 41.572 13.4281C40.14 12.5901 38.302 13.0701 37.468 14.5001L35.728 17.4681L33.988 14.4981C33.152 13.0681 31.314 12.5901 29.884 13.4261C28.454 14.2621 27.974 16.1001 28.812 17.5301L32.252 23.4001L21.342 42.0181H12.6C10.942 42.0181 9.59998 43.3481 9.59998 44.9861C9.59998 46.6241 10.942 47.9541 12.6 47.9541H39.388C39.776 46.6481 39.67 45.1901 38.946 43.8381L38.604 43.2601Z" fill="white"/>
<path opacity="0.05" d="M17 60.358C16.114 60.358 15.242 60.12 14.474 59.67C13.322 58.994 12.502 57.91 12.164 56.618C11.828 55.326 12.014 53.978 12.69 52.826L14.116 50.39L14.996 50.214C15.718 50.072 16.392 50 17.056 50L17.292 50.002C19.454 50.066 21.412 50.99 22.824 52.602L23.776 53.686L21.318 57.886C20.422 59.412 18.77 60.358 17 60.358Z" fill="black"/>
<path opacity="0.07" d="M17 59.358C16.292 59.358 15.592 59.168 14.98 58.808C14.06 58.268 13.402 57.4 13.132 56.366C12.862 55.332 13.01 54.254 13.552 53.332L14.752 51.284L15.192 51.196C15.85 51.064 16.46 51 17.056 51L17.28 51.002C19.146 51.058 20.846 51.86 22.072 53.26L22.548 53.802L20.454 57.38C19.74 58.6 18.416 59.358 17 59.358Z" fill="black"/>
<path d="M17.252 52.004C16.618 51.986 15.996 52.056 15.388 52.178L14.414 53.84C13.576 55.27 14.056 57.108 15.486 57.946C15.962 58.226 16.486 58.358 17 58.358C18.03 58.358 19.034 57.826 19.59 56.876L21.32 53.922C20.346 52.81 18.94 52.054 17.26 52.004H17.252Z" fill="white"/>
<path opacity="0.05" d="M54.458 60.358C52.688 60.358 51.034 59.41 50.142 57.886L38.088 37.316L38.054 37.212C37.22 34.634 37.384 31.976 38.482 29.626L41.82 23.91L51.26 40.02H59.4C62.156 40.02 64.4 42.248 64.4 44.988C64.4 47.728 62.156 49.956 59.4 49.956H57.082L58.766 52.83C59.442 53.982 59.628 55.328 59.292 56.622C58.956 57.916 58.134 58.998 56.982 59.674C56.218 60.12 55.346 60.358 54.458 60.358Z" fill="black"/>
<path opacity="0.07" d="M54.458 59.3579C53.042 59.3579 51.718 58.6019 51.004 57.3819L39.004 36.9059L38.97 36.8019C38.248 34.5659 38.394 32.1679 39.386 30.0499L41.818 25.8879L50.684 41.0179H59.4C61.606 41.0179 63.4 42.7979 63.4 44.9859C63.4 47.1739 61.606 48.9539 59.4 48.9539H55.338L57.904 53.3339C58.446 54.2559 58.594 55.3339 58.324 56.3679C58.054 57.4019 57.398 58.2699 56.476 58.8099C55.866 59.1679 55.168 59.3579 54.458 59.3579Z" fill="black"/>
<path d="M59.4 42.018H50.114L41.82 27.866L40.294 30.472C39.406 32.372 39.286 34.52 39.924 36.494L51.868 56.876C52.426 57.828 53.428 58.358 54.458 58.358C54.972 58.358 55.496 58.226 55.972 57.946C57.402 57.108 57.88 55.27 57.042 53.84L53.592 47.954H59.4C61.058 47.954 62.4 46.624 62.4 44.986C62.4 43.348 61.058 42.018 59.4 42.018Z" fill="white"/>
<defs>
<linearGradient id="paint0_linear_421_122" x1="36" y1="-2.766" x2="36" y2="68.192" gradientUnits="userSpaceOnUse">
<stop stop-color="#33BEF0"/>
<stop offset="1" stop-color="#0A85D9"/>
</linearGradient>
</defs>
</svg>
