<svg width="868" height="337" viewBox="0 0 868 337" fill="none" xmlns="http://www.w3.org/2000/svg">
<path d="M115.283 271.93L116.937 272.111L117.117 270.458L115.464 270.277L115.283 271.93ZM80.9369 268.181L81.1174 266.528L81.0658 266.522L81.0139 266.52L80.9369 268.181ZM66.9549 267.534L65.3016 267.353L65.1095 269.113L66.8779 269.195L66.9549 267.534ZM67.1308 265.922L66.7705 264.298L65.6069 264.556L65.4776 265.741L67.1308 265.922ZM81.5324 262.726L81.8927 264.349L81.9514 264.336L82.0089 264.319L81.5324 262.726ZM112.272 253.534L112.749 255.127L113.806 254.811L113.926 253.714L112.272 253.534ZM115.358 225.263L117.011 225.444L117.131 224.347L116.167 223.81L115.358 225.263ZM87.325 209.656L88.134 208.203L88.0815 208.174L88.0271 208.149L87.325 209.656ZM73.952 203.429L72.2988 203.248L72.1694 204.433L73.2499 204.936L73.952 203.429ZM74.128 201.817L74.4112 200.178L72.6668 199.876L72.4747 201.636L74.128 201.817ZM87.9205 204.201L87.6373 205.839L87.6885 205.848L87.7401 205.854L87.9205 204.201ZM122.267 207.949L122.086 209.603L123.74 209.783L123.92 208.13L122.267 207.949ZM124.811 184.639L126.465 184.819L126.645 183.166L124.992 182.985L124.811 184.639ZM41.7354 175.571L41.9158 173.917L40.2626 173.737L40.0821 175.39L41.7354 175.571ZM38.2842 207.189L36.6309 207.009L36.5111 208.107L37.4765 208.643L38.2842 207.189ZM71.171 225.459L70.3633 226.913L70.399 226.933L70.4357 226.951L71.171 225.459ZM91.7693 235.612L93.4225 235.792L93.5488 234.635L92.5045 234.12L91.7693 235.612ZM91.5933 237.224L92.014 238.833L93.1223 238.543L93.2466 237.404L91.5933 237.224ZM69.2491 243.066L68.8284 241.457L68.7865 241.468L68.7452 241.481L69.2491 243.066ZM33.1141 254.555L32.6102 252.97L31.5784 253.298L31.4609 254.374L33.1141 254.555ZM29.6629 286.173L28.0097 285.993L27.8292 287.646L29.4825 287.827L29.6629 286.173ZM112.739 295.241L112.558 296.894L114.212 297.075L114.392 295.422L112.739 295.241ZM115.464 270.277L81.1174 266.528L80.7565 269.835L115.103 273.584L115.464 270.277ZM81.0139 266.52L67.0319 265.872L66.8779 269.195L80.86 269.843L81.0139 266.52ZM68.6081 267.714L68.7841 266.102L65.4776 265.741L65.3016 267.353L68.6081 267.714ZM67.4911 267.545L81.8927 264.349L81.1721 261.102L66.7705 264.298L67.4911 267.545ZM82.0089 264.319L112.749 255.127L111.796 251.94L81.056 261.132L82.0089 264.319ZM113.926 253.714L117.011 225.444L113.705 225.083L110.619 253.353L113.926 253.714ZM116.167 223.81L88.134 208.203L86.5161 211.109L114.549 226.716L116.167 223.81ZM88.0271 208.149L74.6541 201.921L73.2499 204.936L86.623 211.164L88.0271 208.149ZM75.6053 203.609L75.7812 201.997L72.4747 201.636L72.2988 203.248L75.6053 203.609ZM73.8447 203.456L87.6373 205.839L88.2038 202.562L74.4112 200.178L73.8447 203.456ZM87.7401 205.854L122.086 209.603L122.447 206.296L88.101 202.547L87.7401 205.854ZM123.92 208.13L126.465 184.819L123.158 184.458L120.614 207.769L123.92 208.13ZM124.992 182.985L41.9158 173.917L41.5549 177.224L124.631 186.292L124.992 182.985ZM40.0821 175.39L36.6309 207.009L39.9374 207.37L43.3886 175.751L40.0821 175.39ZM37.4765 208.643L70.3633 226.913L71.9786 224.005L39.0918 205.735L37.4765 208.643ZM70.4357 226.951L91.034 237.104L92.5045 234.12L71.9062 223.967L70.4357 226.951ZM90.116 235.432L89.9401 237.043L93.2466 237.404L93.4225 235.792L90.116 235.432ZM91.1726 235.615L68.8284 241.457L69.6698 244.675L92.014 238.833L91.1726 235.615ZM68.7452 241.481L32.6102 252.97L33.618 256.14L69.753 244.651L68.7452 241.481ZM31.4609 254.374L28.0097 285.993L31.3162 286.354L34.7674 254.735L31.4609 254.374ZM29.4825 287.827L112.558 296.894L112.919 293.588L29.8434 284.52L29.4825 287.827ZM114.392 295.422L116.937 272.111L113.63 271.75L111.086 295.061L114.392 295.422Z" fill="white"/>
<path d="M150.02 146.062L127.883 131.6L100.999 68.2995L85.0363 92.7346L94.7499 114.128L100.677 126.492L99.7906 127.85L86.0865 127.389L62.5933 127.09L46.6991 151.421L114.954 151.164L137.196 165.694L150.02 146.062Z" fill="white"/>
<path d="M200.143 117.519L198.307 96.5194L221.046 94.5312C240.802 92.8038 252.229 80.2858 250.501 60.529C248.774 40.7723 235.36 30.5514 215.603 32.2788L169.504 36.3094L176.783 119.561L200.143 117.519ZM214.829 53.5063C223.03 52.7892 226.527 54.1112 227.265 62.5606C228.015 71.1343 224.801 73.043 216.6 73.76L196.471 75.52L194.7 55.2663L214.829 53.5063Z" fill="white"/>
<path d="M274.007 118.125L279.075 90.1417L288.525 91.853C297.485 93.4754 299.628 95.6382 301.463 102.308L307.636 124.215L334.27 129.038L327.817 106.574C325.882 99.7585 323.915 95.2193 315.846 91.4765L316.069 90.2492C332.134 91.1302 340.039 84.5759 342.395 71.5661C345.307 55.4879 335.537 44.3386 313.813 40.4048L265.824 31.7148L250.933 113.947L274.007 118.125ZM285.142 56.6352L309.812 61.1024C316.562 62.3248 318.728 64.3649 317.55 70.8698C316.283 77.8656 313.606 78.6485 306.856 77.4261L282.186 72.9589L285.142 56.6352Z" fill="white"/>
<path d="M376.648 146.386C391.358 150.845 404.461 150.24 414.966 145.024C425.491 139.798 433.062 130.114 437.004 117.108L432.229 115.661C428.61 127.602 421.823 136.049 412.748 140.555C403.653 145.071 391.914 145.8 378.095 141.611L376.648 146.386ZM437.004 117.108C440.946 104.102 440.026 91.8441 434.174 81.6544C428.332 71.4838 417.77 63.7062 403.06 59.2476L401.612 64.0223C415.431 68.2108 424.79 75.3339 429.847 84.1392C434.893 92.9255 435.849 103.719 432.229 115.661L437.004 117.108ZM403.06 59.2476C388.693 54.8932 375.71 55.5433 365.244 60.7657C354.76 65.997 347.126 75.6551 343.181 88.6705L347.956 90.1177C351.572 78.1853 358.416 69.7489 367.472 65.23C376.546 60.7024 388.166 59.9469 401.612 64.0223L403.06 59.2476ZM343.181 88.6705C339.236 101.686 340.224 113.957 346.039 124.129C351.845 134.283 362.282 142.032 376.648 146.386L378.095 141.611C364.649 137.536 355.404 130.456 350.37 121.653C345.347 112.866 344.339 102.05 347.956 90.1177L343.181 88.6705ZM384.608 120.125C376.456 117.655 372.588 115.37 370.944 112.454C369.325 109.584 369.423 105.294 371.829 97.3537L367.055 95.9065C364.649 103.842 363.851 110.033 366.598 114.905C369.319 119.731 375.078 122.45 383.161 124.9L384.608 120.125ZM371.829 97.3537C374.236 89.4137 376.536 85.7914 379.477 84.3025C382.463 82.79 386.948 83.0378 395.1 85.5085L396.547 80.7338C388.465 78.2841 382.165 77.3484 377.222 79.8515C372.233 82.3782 369.46 87.9706 367.055 95.9065L371.829 97.3537ZM395.1 85.5085C403.24 87.9756 407.264 90.3011 409.026 93.2928C410.743 96.2056 410.748 100.532 408.356 108.425L413.131 109.872C415.55 101.889 416.213 95.6619 413.325 90.7601C410.483 85.9374 404.642 83.1872 396.547 80.7338L395.1 85.5085ZM408.356 108.425C405.964 116.318 403.557 119.913 400.512 121.383C397.385 122.892 392.747 122.592 384.608 120.125L383.161 124.9C391.255 127.353 397.641 128.309 402.682 125.876C407.805 123.402 410.711 117.855 413.131 109.872L408.356 108.425Z" fill="white"/>
<path d="M456.902 170.313C483.941 179.9 498.102 171.686 505.896 149.702L522.276 103.501L498.763 95.1653L482.467 141.131C479.007 150.889 477.067 153.377 464.488 148.917C451.791 144.416 452.287 141.151 456.08 130.453L457.08 127.632L433.568 119.296L432.484 122.352C424.399 145.159 429.981 160.769 456.902 170.313Z" fill="white"/>
<path d="M574.927 212.403L582.305 192.657L534.75 174.89L538.417 165.075L584.219 182.188L591.553 162.558L545.751 145.446L549.243 136.098L596.798 153.866L604.175 134.119L534.655 108.145L505.406 186.429L574.927 212.403Z" fill="white"/>
<path d="M620.246 230.779C646.536 240.601 666.98 233.992 674.794 213.078L675.536 211.091L650.999 201.924L650.257 203.91C646.94 212.79 641.424 214.724 628.454 209.879C612.564 203.942 609.637 198.588 615.443 183.048C621.249 167.508 626.969 165.384 642.86 171.321C655.829 176.166 658.726 181.243 655.408 190.123L654.666 192.109L679.203 201.277L679.945 199.29C687.759 178.376 676.656 159.98 650.367 150.158C623.143 139.987 601.198 149.897 592.075 174.317C582.951 198.737 593.022 220.608 620.246 230.779Z" fill="white"/>
<path d="M717.383 265.031L738.456 206.202L766.168 216.128L773.276 196.283L695.659 168.481L688.55 188.325L716.38 198.294L695.307 257.124L717.383 265.031Z" fill="white"/>
<path d="M792.395 292.157C819.152 301.028 833.574 292.406 838.088 278.791C841.464 268.609 839.552 256.937 821.078 247.658L797.432 235.745C793.366 233.74 792.338 232.085 793.162 229.599C794.301 226.165 797.297 225.45 808.663 229.219C823.58 234.164 825.439 236.883 823.554 242.566L822.966 244.342L845.224 251.721L845.459 251.011C851.347 233.252 842.921 218.238 817.704 209.877C789.053 200.378 774.83 210.38 770.63 223.048C766.39 235.834 771.219 246.24 785.351 253.159L809.114 264.717C815.351 267.705 816.498 269.399 815.556 272.24C814.378 275.792 812.604 276.386 799.107 271.912C784.19 266.966 782.767 264.917 784.533 259.589L785.357 257.103L763.099 249.724L762.864 250.434C756.191 270.561 768.125 284.11 792.395 292.157Z" fill="white"/>
</svg>
