<svg width="22" height="22" viewBox="0 0 22 22" fill="none" xmlns="http://www.w3.org/2000/svg">
<path d="M14.3222 9.38306C14.3796 9.94576 14.4125 10.4904 14.4125 11.0001C14.4125 11.9542 14.2972 13.0316 14.1208 14.1209C13.0315 14.2973 11.9541 14.4126 11 14.4126C10.0502 14.4126 8.97316 14.2976 7.87914 14.1206C7.70284 13.0313 7.58752 11.9541 7.58752 11.0001C7.58752 10.4906 7.62041 9.94586 7.67791 9.38306C8.8261 9.56686 9.97152 9.68756 11 9.68756C12.0286 9.68756 13.174 9.56686 14.3222 9.38306Z" fill="#5156D6" stroke="black" stroke-width="0.00024"/>
<path d="M15.8752 9.09939C15.9462 9.75789 15.9875 10.399 15.9875 11C15.9875 11.8769 15.8997 12.8389 15.7599 13.8153C17.7425 13.4016 19.575 12.8731 20.5567 12.5722C20.8739 12.475 20.9986 12.4363 21.1658 12.3694C21.2494 12.336 21.326 12.302 21.4259 12.2543C21.4748 11.843 21.5 11.4244 21.5 11C21.5 9.87799 21.324 8.79713 20.9982 7.78345L20.9133 7.81016C19.8868 8.12244 17.9652 8.67449 15.8752 9.09939Z" fill="#5156D6" stroke="black" stroke-width="0.00024"/>
<path d="M20.4017 6.31943C19.3698 6.63216 17.579 7.14034 15.6599 7.53598C15.2178 4.84921 14.443 2.16946 14.0702 0.955933C16.8422 1.80222 19.1273 3.76462 20.4017 6.31943Z" fill="#5156D6" stroke="black" stroke-width="0.00024"/>
<path d="M14.1117 7.82229C13.0253 7.99781 11.9513 8.1125 11 8.1125C10.0487 8.1125 8.97477 7.99781 7.88843 7.8223C8.30471 5.28005 9.0478 2.68306 9.4278 1.44333C9.525 1.12606 9.5637 1.00144 9.6306 0.83418C9.664 0.75062 9.698 0.67398 9.7457 0.57414C10.157 0.52518 10.5756 0.5 11 0.5C11.4434 0.5 11.8803 0.52748 12.3093 0.58083C12.3184 0.61564 12.3268 0.64679 12.3351 0.67626C12.3597 0.76333 12.3982 0.8857 12.4628 1.09104L12.4696 1.11261C12.7935 2.14223 13.6519 5.01401 14.1117 7.82229Z" fill="#5156D6" stroke="black" stroke-width="0.00024"/>
<path d="M6.34002 7.53596C6.78008 4.86103 7.54984 2.19572 7.9219 0.981773L7.92981 0.955933C5.15775 1.80221 2.87268 3.76461 1.59833 6.31942C2.63016 6.63215 4.42093 7.14032 6.34002 7.53596Z" fill="#5156D6" stroke="black" stroke-width="0.00024"/>
<path d="M1.00184 7.78345C0.67598 8.79714 0.5 9.878 0.5 11C0.5 11.4389 0.52693 11.8715 0.57923 12.2963L0.74471 12.3515L0.74603 12.3519L0.74765 12.3525L0.74879 12.3528C0.80205 12.3705 2.36305 12.886 4.41878 13.3975C4.99886 13.5418 5.61307 13.6844 6.24006 13.8151C6.10025 12.8388 6.0125 11.8769 6.0125 11C6.0125 10.3988 6.05374 9.7577 6.12472 9.0994C4.03428 8.67436 2.11218 8.12212 1.08597 7.80989L1.07883 7.80771L1.00184 7.78345Z" fill="#5156D6" stroke="black" stroke-width="0.00024"/>
<path d="M11 15.9875C11.8769 15.9875 12.8389 15.8997 13.8153 15.7599C13.4016 17.7425 12.8731 19.575 12.5722 20.5566C12.475 20.8739 12.4363 20.9985 12.3694 21.1658C12.336 21.2494 12.302 21.326 12.2543 21.4259C11.843 21.4748 11.4244 21.5 11 21.5C10.5756 21.5 10.157 21.4748 9.74567 21.4259C9.69797 21.326 9.66397 21.2494 9.63057 21.1658C9.56367 20.9986 9.52497 20.8739 9.42777 20.5567C9.12687 19.5751 8.59843 17.7427 8.18475 15.7603C9.15787 15.8996 10.1201 15.9875 11 15.9875Z" fill="#5156D6" stroke="black" stroke-width="0.00024"/>
<path d="M4.03852 14.9259C2.73855 14.6024 1.63137 14.2775 0.955994 14.0702C1.9726 17.4002 4.59984 20.0274 7.92985 21.044L7.92194 21.0182C7.59707 19.9582 6.96899 17.7917 6.52193 15.4784C5.65252 15.3103 4.80724 15.1171 4.03852 14.9259Z" fill="#5156D6" stroke="black" stroke-width="0.00024"/>
<path d="M21.0182 14.0781C19.9582 14.403 17.7915 15.0311 15.4781 15.4781C15.0311 17.7915 14.403 19.9581 14.0781 21.0182L14.0702 21.044C17.4002 20.0274 20.0274 17.4002 21.044 14.0702L21.0182 14.0781Z" fill="#5156D6" stroke="black" stroke-width="0.00024"/>
<path d="M0.610291 12.323C0.646641 12.3277 0.676271 12.3327 0.686101 12.3349C0.694711 12.337 0.708201 12.3406 0.713091 12.3419L0.723901 12.345L0.729721 12.3468L0.735841 12.3487L0.740971 12.3503C0.738091 12.3494 0.679751 12.3348 0.610291 12.323Z" fill="#5156D6" stroke="black" stroke-width="0.00024"/>
</svg>
